<?xml version="1.0" standalone="no"?>
<!DOCTYPE svg PUBLIC "-//W3C//DTD SVG 20010904//EN"
 "http://www.w3.org/TR/2001/REC-SVG-20010904/DTD/svg10.dtd">
<svg version="1.0" xmlns="http://www.w3.org/2000/svg"
 width="3172.000000pt" height="3352.000000pt" viewBox="0 0 3172.000000 3352.000000"
 preserveAspectRatio="xMidYMid meet">

<g transform="translate(0.000000,3352.000000) scale(0.100000,-0.100000)"
fill="#000000" stroke="none">
<path d="M13155 23716 c-29 -19 -148 -56 -420 -131 -454 -125 -1697 -478
-2250 -639 -198 -58 -453 -131 -566 -162 l-206 -57 -6 -3936 c-13 -7657 -8
-8953 36 -8997 3 -3 99 22 214 56 114 33 336 97 493 142 1103 312 2079 589
2325 661 160 46 325 93 368 103 l77 18 0 3955 c-1 4061 -14 8744 -26 8909 -4
50 -10 92 -13 92 -4 0 -15 -6 -26 -14z"/>
<path d="M14545 23720 c-37 -60 -44 -1289 -45 -7511 l0 -5585 98 -23 c114 -27
981 -274 1492 -424 315 -93 506 -147 1189 -338 96 -27 177 -46 179 -44 29 29
36 2001 27 7877 l-7 5218 -32 9 c-17 5 -589 169 -1271 364 -1024 293 -1446
415 -1607 463 -9 3 -19 0 -23 -6z"/>
<path d="M21985 23722 c-11 -2 -153 -44 -315 -93 -162 -48 -781 -226 -1375
-394 -1105 -314 -1316 -374 -1536 -443 -70 -22 -145 -43 -167 -47 -35 -6 -41
-10 -45 -38 -3 -18 -12 -212 -19 -432 -9 -308 -12 -1712 -13 -6090 0 -6282 1
-6395 56 -6388 8 1 133 35 279 77 146 41 438 125 650 185 212 60 723 205 1135
323 413 118 827 236 920 262 94 26 236 67 316 93 l146 45 5 4797 c6 4416 0
8134 -12 8143 -3 3 -14 2 -25 0z"/>
</g>
</svg>
